<svg width="64" height="64" viewBox="0 0 64 64" fill="none" xmlns="http://www.w3.org/2000/svg">
  <!-- Concept: The Sliced Disc / Negative Space -->
  <!-- A solid shape representing the "unit" of code, sliced by the syntax -->
  
  <!-- Background: Solid Black Squircle (High Contrast, Bold) -->
  <rect x="4" y="4" width="56" height="56" rx="16" fill="#0F172A" />
  
  <!-- Foreground: White Negative Space Braces -->
  <!-- Left Brace -->
  <path d="M24 18C19 18 18 23 18 26V29C18 31 17 32 15 32C17 32 18 33 18 35V38C18 41 19 46 24 46" 
        stroke="#22D3EE" stroke-width="5" stroke-linecap="round" stroke-linejoin="round" />
        
  <!-- Right Brace -->
  <path d="M40 18C45 18 46 23 46 26V29C46 31 47 32 49 32C47 32 46 33 46 35V38C46 41 45 46 40 46" 
        stroke="#4ADE80" stroke-width="5" stroke-linecap="round" stroke-linejoin="round" />
        
  <!-- The "Patch" Accent: A small slash/slice cutting through the center or connecting them -->
  <!-- Let's keep it pure and simple as requested: "Minimalist" -->
</svg>
